<?xml version="1.0" encoding="UTF-8"?>
<svg id="Layer_2" data-name="Layer 2" xmlns="http://www.w3.org/2000/svg" viewBox="0 0 135.94 204.92">
  <defs>
    <style>
      .cls-1 {
        fill: #3772ff;
        stroke-width: 0px;
      }
    </style>
  </defs>
  <g id="Layer_1-2" data-name="Layer 1">
    <path class="cls-1" d="M131.95,196.1c-2.66-1.61-3.14-4.74-3.55-7.76-1.12-8.13-2.64-16.35-1.94-24.65.51-6.01,1.41-12.19,2.37-18.14.76-4.7,1.19-9.5,1.47-14.25.11-1.93.51-3.8.46-5.75-.06-2.18-.45-4.38-.11-6.55.33-2.16.56-4.54.58-6.81.05-5.71.21-11.15-.89-16.59-.67-3.32-.46-6.78-1.12-10.09-.76-3.84-1.82-7.64-2.82-11.52-.54-2.1-.93-4.29-.7-6.48.16-1.5.48-2.98.67-4.48.18-1.42-.24-2.93.06-4.32.24-1.1,1.07-1.72,1.4-2.78.55-1.75-.08-3.59.45-5.42.51-1.72.65-3.6,1.2-5.25.64-1.91,2.13-3.58,2.63-5.56.51-2.01.18-3.89.92-5.9.79-2.13.76-4.93.35-7.13-.01-.05-.02-.1-.03-.16.41-2.63.42-5.32.03-7.92-.5-3.34-1.92-6.47-2.43-9.83-.37-2.42-.75-5.21-1.43-7.56-.47-1.63-1.51-1.44-1.98.37-.33,1.28.3,2.69.29,3.98-.01,1.36-.46,2.61-.47,4-.02,2.47-.13,5.26-.89,7.58-.44,1.35-1.32,2.55-1.78,3.89-.07.19-.12.39-.17.58-.24,0-.48,0-.71.01-2.11.04-4.17-.31-6.29,0-.81.11-1.62.33-2.45.35-1.2-4.55-4.02-9.11-4.25-13.67-.14-2.74.15-5.8,1.07-8.29-2.01-.14-3.01,2.91-3.67,4.38-1.71,3.78-2.37,8.17-3.43,12.13-.36,1.34-.53,2.8-.68,4.22-1.41,3.4-2.56,6.58-1.15,10.23.49,1.27,1.24,2.36,1.36,3.71.25,2.75-1.17,5.05-2.3,7.43-1.33,2.76-2.37,5.64-2.79,8.69-.38,2.73-.2,5.89-1.34,8.37-1.68,3.66-4.36,7.3-6.64,10.61-1.41,2.05-3.37,3.51-5.38,4.94-4.52,3.23-9.83,6.69-15.2,8.33-5.69,1.74-11.27,2.59-17.04,3.16-1.77.18-3.91.48-5.93,1.03-.78-.67-1.53-1.4-2.2-2.24-1.06-1.31-2.05-2.96-3.62-3.74-1.58-.78-4.21-.91-5.3.7-1.63,2.4.22,5.13,1.47,7.12.62,1,1.33,2.1,1.98,3.23-.53.73-1.03,1.49-1.55,2.24-2.32,3.37-5.98,5.55-8.07,9.02-1.91,3.18-2.89,6.87-3.79,10.44-1.09,4.35-2.19,8.69-3.27,13.03-1.94,7.81-5.7,15.42-9.95,22.22-2.52,4.02-4.01,8.52-8.56,10.46-2.2.94-3.26,1.28-2.79,3.59.31,1.52.32,2.84.16,4.41-.16,1.56-.89,3-.93,4.64-.06,2.63.58,5.24.45,7.96-.15,3.35-.28,6.66-.88,9.98-.48,2.66-1.63,5.17-.02,7.54,1.65,2.44,3.62,3.87,6.59,3.68,1.6-.1,3.09-.98,4.68-.93,1.03.03,2.27.63,3.16-.18,1.85-1.69-.86-4.93-2.14-6.1-1.84-1.67-2.32-1.93-2.89-4.57-.28-1.29-.39-2.65-.45-3.96-.14-3.17-.09-6.28.26-9.45.51-4.6,2.28-7.51,5.19-11.2,3.71-4.7,8.9-8.6,13.52-12.39,6.45-5.28,12.68-11.06,18.66-16.87.86-.83,3.82-2.82,3.77-3.78,1.64,4.84,3.3,12.12,2.86,17.22-.42,4.86-3.91,7.78-7.04,10.95-2.88,2.91-3.27,4.59-1.85,8.37,1.36,3.64.48,7.55,2.17,11.08,1.14,2.38,2.28,4.71,2.91,7.29.64,2.63.68,5.35,1.26,7.96,1.55,6.89,7.19,5.63,12.89,5.58,1.86-.02,3.54-.73,3.07-2.9-.49-2.28-3.14-3.66-4.91-4.67-4.39-2.5-6.67-9.95-7.82-14.61-2.05-8.28,2.57-13.34,8.02-18.97,3.3-3.42,6.19-6.32,7.91-10.85,1.45-3.82,2.88-8.38,2.63-12.47-.1-1.61-.02-3.34-.29-4.9,2.51.16,5.41,1.49,7.89,2.17,3.1.84,5.36,1.74,7.24,4.62,1.63,2.51.93,5.29,1.23,8.34.17,1.72.46,3.4.63,5.09.61,6.19-.88,12.51-.62,18.75.17,4.04,1.05,9.03-.04,12.93-.4,1.42-1.27,2.77-.85,4.36.36,1.38,1.75,2.19,2.25,3.55.61,1.68.5,3.85.5,5.66,0,2.57.3,5.08.49,7.58,1.06-.69,2.88-.01,4.07.17,1.92.29,3.5.67,5.42.46,2.09-.23,4.79-.32,5.6-2.77.82-2.53-1.14-3.77-2.71-5.18-1.55-1.4-2.29-2.96-2.81-4.96-.6-2.31-1.62-4.37-2.05-6.7-.6-3.21-.11-6.28-.27-9.51-.51-10.41-.37-20.98.76-31.38.16-1.46.41-3.67.95-5,.61-1.52,1.9-1.66,3.48-2.16,2.54-.81,5.16-1.38,7.66-2.27,1.73-.61,2.67-1.8,4.11-2.66.11,4.34.46,8.83.81,13.16.47,5.7-.06,11.45.45,17.16.55,6.18,1.57,12.19.82,18.38-.49,4.07.3,7.74.85,11.77.57,4.13-.05,10,4.76,11.37,2.32.66,4.11-.65,6.37-.75,1.28-.06,2.97.44,4.24-.06,4.18-1.67-.21-5.96-2.25-7.19Z"/>
  </g>
</svg>