<?xml version="1.0" encoding="UTF-8"?>
<svg id="Layer_2" data-name="Layer 2" xmlns="http://www.w3.org/2000/svg" viewBox="0 0 113.17 170.21">
  <defs>
    <style>
      .cls-1 {
        fill: #3772ff;
        stroke-width: 0px;
      }
    </style>
  </defs>
  <g id="Layer_1-2" data-name="Layer 1">
    <path class="cls-1" d="M110.48,26.17c.4-4.11,2.78-8.35,2.68-12.59-.1-4.16-3.31-6.77-6.3-8.9-3.81-2.72-6.99-3.85-11.37-1.95-1.94-1.19-4.43-2.82-6.82-2.71-1.11.05-2.2.42-3.33.49-1.45.09-2.9.22-4.35.22-1.83,0-3.66.14-5.36.86-1.62.68-2.58,2.34-3.49,3.75-.38.58-.86,1.7-1.46,2.07-.61.38-1.35.13-2.07-.01-2.95-.58-4.35-.67-6.11,2.15-1.81,2.9-3.44,5.39-6.06,7.74-2.39,2.13-4.43,4.54-2.88,7.86,1.59,3.4,5.84,4.18,7.28,7.64.74,1.78-.51,9.59,3.61,7.92,2.88,3.57,6.06-1.17,7.23-4.19-.8,2.9-.93,5.89-2.24,8.62-3.15,6.57-8.24,11.36-13.73,15.95-3.41,2.85-7.38,4.96-10.8,7.65-6.95,5.48-12.57,13.61-15.7,21.88-4.95,13.1-11.78,26.44-12.46,40.39-.21,4.27-.58,8.62.28,12.5-2.76,1.61-5.38,3.45-7.71,5.57-3.53,3.21-12.39,10.53-8.23,16.07,4.34,5.77,15.39,4.74,21.63,4.96,5.31.19,10.48.22,15.79-.24,1.81-.16,8.26-1.56,8.26-1.56,0,0-6.62-.9-9.36-.79-7.26.3-14.82.53-21.86-1.55-2.24-.66-5.67-1.64-7.03-3.76-1.8-2.8,2.84-6.91,5.37-8.22,2.66-1.38,4.86-2.51,6.95-3.51.55.53,1.14,1.03,1.83,1.51-.97,2.38-2.74,5.47-.89,7.76,1.45,1.8,5.65,2.58,7.83,2.36,4.1-.41,8-.21,11.93.05,3.9.26,8.34.34,12.29,1.79,3.81,1.4,5.79,1.02,9.46-.59,1.58-.69,2.88-.54,3.27-2.52.42-2.08-.98-3.02-2.51-4.06,1.62-1.4,4.47-1.5,5.62-3.55,1.03-1.85.26-4.6-1.66-5.44-2.26-1-7.82-.08-10.15.01-3.04.12-6.09.32-9.01.58,4.02-2.43,10.7-4.58,14.3-8.33,3.4-3.54,3.55-8.96,2.19-13.56-.46.32-.41-.05-.82-.11.7-1.85,3.48-3.31,6.1-4.5.04.47.09.92.16,1.31.38,2.03.6,4.08,1,6.11.78,3.95,1.6,7.99,2.51,11.88.73,3.16,1.6,6.08,1.92,9.31.3,3.01-.44,6.17,1.24,8.55,1.15,1.63,2.49,4.5,4.36,5.21,2.44.92,7.02.09,9.37-.81,2.8-1.07,1.97-2.74-.1-4.41-2.09-1.68-3.88-3.59-5.21-6.01-1.78-3.26-2.09-7.19-2.42-10.96-.31-3.58-.32-7.24-.46-10.85-.2-5.21-.52-10.51-.73-15.8.46-.32.93-.64,1.38-.97.78-.57,1.54-1.18,2.29-1.81.71,3.89,1.27,7.64,1.28,10.87,0,4.15.2,8.23.2,12.36,0,3.07.22,4.32,2.16,6.62,1.56,1.84,2.96,4.06,4,6.2,1.35,2.79,2.53,4.82,5.85,5.21,2.21.26,6.6.16,8.08-1.75,3.2-4.13-6.99-8.54-8.63-11.48-1.97-3.54-1.61-8.6-1.8-12.52-.2-4.16-.84-8.53-.37-12.69.59-5.26,1.73-10.47,2.32-15.74.12-1.04.3-2.2.52-3.41,2.77-6.03,3.25-14.55,3.49-20.63.22-5.72.36-11.74-1.26-17.29-1.07-3.65-7.1-8.23-4.32-12.56,1.12-1.74,3.69-1.95,4.57-4.26,1.03-2.72-.94-3.81-1.67-6.31-.63-2.16.23-4.59,1.31-6.69,2.32,2.41,1.97,6.64,6.81,6.11,4.05-.44,1.71-5.21,2.03-8.46Z"/>
  </g>
</svg>