<?xml version="1.0" encoding="UTF-8"?>
<svg id="Layer_2" data-name="Layer 2" xmlns="http://www.w3.org/2000/svg" viewBox="0 0 69.28 124.77">
  <defs>
    <style>
      .cls-1 {
        fill: #3772ff;
        stroke-width: 0px;
      }
    </style>
  </defs>
  <g id="Layer_1-2" data-name="Layer 1">
    <path class="cls-1" d="M66.3,107.14c-2.05-5.37-1.27-11.01-1.88-16.59-.28-2.58-.99-5.01-1.1-7.67-.14-3.13,0-6.28-.46-9.39-.28-1.89-.85-3.31-.57-5.3.35-2.58.49-4.95.04-7.53-.07-.38-.14-.76-.22-1.14,2.92-2.34,5.43-5.12,6.18-8.48.3-1.33,1.62-4.43.66-5.52-1.31,2.67-.95,5.25-3.59,7.61-.88.79-2.52,1.83-4.35,2.64-2.15-5.59-8.53-9.78-13.69-12.3-2.58-1.26-6.24-.81-8.49-2.51-.18-.13-.33-.28-.47-.43.02-.58.09-1.07.23-1.42.54-1.37.9-2.52,1.35-3.89.61-1.86,1.06-2.78.74-4.8-.03-.21-.08-.42-.13-.63.45-.83.97-1.58,1.08-2.62.16-1.57-.57-2.61.62-3.93.89-.99,3.49-1.36,2.68-3.27,1.4-.46,1.88-1.95.66-2.84.98-.58,2-2.87.44-3.44.67-3.39,3.54-9.49.35-12.48-1.39-1.3-6.67,2.26-8.53,2.99-3.5,1.36-4.44,3.67-6.63,6.49-2.83.43-5.7.45-8.58.38-1.4-.03-4.01.22-5.26-.37-1.48-.7-1.32-2.47-2.36-3.6-1.02-1.11-2.91-1.19-4.23-1.95C8.88,4.03,5.39-.53,2.95.05c-1.76.42-1.24,4.32-1.33,5.88-.11,2.1-.98,3.51-1.48,5.49-.51,2.05.53,3.35.53,5.11,0,1.46-1.59,4.75,1.49,4.21-.08,1.21-.72,2.54.21,3.6.33-.33.98-.49,1.31-.77.04,1.34,1.92,2.34,2.84,2.16,1.21-.23,1.65-.69,2.64-1.22.19.36.34.72.47,1.1-.89,1.3-1.55,3.16-1.33,4.34.14.76,1.06,1.18,1.26,1.79.25.77.05,1.8.22,2.61.3,1.4,1.03,2.66,1.96,3.84.33,1.35.54,2.67-.07,3.98-.98,2.11-2.34,3.18-2.05,5.8.58-.24,1.34-.46,2.04-.31-.53.87-2,1.92-2.13,2.99-.2,1.68,1.19,1.09,1.41,2.2.2.97-1.45,3.51-1.69,4.54-1.05,4.6.74,9.36.29,14.06-.34,3.51-.1,5.06,1.9,8.02,2.03,3.01,1,5.9,1.17,9.45.18,3.6,1.76,6.9,2.28,10.44.58,3.9.38,8.37.18,12.33-.16,3.13-.27,5.28-3.02,7.2-1.21.84-3.24,1.42-3.28,3.22-.03,1.75,1.53,2.06,3.08,2.08,1.82.03,7.6.04,8.49-1.17.37-.5.25-1.83.38-2.43.2-.95.22-1.28.8-2.22,1.19-1.96,1.8-2.55,1.56-4.68-1.05-9.61-2.33-19.42-.58-29.07,3.86.74,8.56,1.62,12.29-.79-.14,5.69,2.32,11.25,1.52,16.77-.6,4.14-1.76,8.47-3.03,12.39-1.58-.44-3.96,3.71-3.77,5.3,2,.1,3.89.2,5.85.41.68.07,2.12.33,2.66-.03.78-.53.62-2.02,1.18-2.78,2.89,1.74-2.11,8.51,2.8,8.88,1.53.12,3.48-.82,4.92-1.23,2.06-.59,2.64-1.02,1.84-3.36-.6-1.77-1.7-3.16-1.84-5.15-.16-2.24,0-4.55,0-6.79-.01-2.6-.29-5.1,0-7.71.38-3.38,2.18-6.88,2.27-10.25.07-2.85-2.4-5.19-2.28-8.06.06-1.39.75-2.94,1.74-3.51,1.21-.69,3.01-.74,4.34-1.64-1.35.91,1.59,7.41,1.9,8.6.79,2.96,2.11,6.03,2.62,9.06.32,1.89-.1,3.81.22,5.67.34,1.94,1.58,3.45,1.87,5.42.28,1.92.35,3.63.16,5.54-.16,1.57-.97,4.49.09,5.83,1.23,1.55,4.96.96,6.87.95,2.89-.01,2.83-1.23,2.2-3.86-.6-2.49-1.73-4.76-2.63-7.12Z"/>
  </g>
</svg>